Coordinates
version=1
nRows=5
nColumns=40
inDegrees=yes

Units are S.I. units (second, meters, Newtons, ...)
Angles are in degrees.

endheader
time	pelvis_tilt	pelvis_list	pelvis_rotation	pelvis_tx	pelvis_ty	pelvis_tz	hip_flexion_r	hip_adduction_r	hip_rotation_r	knee_angle_r	knee_angle_r_beta	ankle_angle_r	subtalar_angle_r	mtp_angle_r	hip_flexion_l	hip_adduction_l	hip_rotation_l	knee_angle_l	knee_angle_l_beta	ankle_angle_l	subtalar_angle_l	mtp_angle_l	lumbar_extension	lumbar_bending	lumbar_rotation	arm_flex_r	arm_add_r	arm_rot_r	elbow_flex_r	pro_sup_r	wrist_flex_r	wrist_dev_r	arm_flex_l	arm_add_l	arm_rot_l	elbow_flex_l	pro_sup_l	wrist_flex_l	wrist_dev_l
     50.93250000	     -3.35172690	     -3.87638311	      0.66503021	      0.98466783	      0.92891312	      0.43887019	     18.13472431	      0.93522356	    -12.43623601	     18.12469868	     18.12469868	      5.68567517	     -3.93716743	     -3.53721889	      6.24536275	     -8.13612173	     -7.35987808	     38.08065646	     38.08065646	     11.68220524	    -11.38342244	    -12.30562197	     -6.93400826	      4.50598661	      1.25640767	     -4.45874356	    -11.99381798	    -12.93193996	     25.87196209	     46.77191488	      0.00000000	      0.00000000	     17.46069471	    -11.80671671	     -8.75152310	     69.79605735	     47.02519326	      0.00000000	      0.00000000
     50.94457143	     -3.19580123	     -3.99177426	      0.89913193	      0.98463849	      0.92973106	      0.44063014	     17.20121297	      1.18579430	    -12.77682024	     17.66803596	     17.66803596	      5.97382408	     -3.57732493	     -3.70053503	      8.15622554	     -8.72372595	     -6.43904835	     42.25437078	     42.25437078	      9.38063962	    -12.92533007	    -12.74684773	     -7.19161692	      4.63128167	      1.44732576	     -2.71442346	    -12.07565195	    -12.78261163	     26.84581692	     46.73070860	      0.00000000	      0.00000000	     16.50267619	    -11.42092895	     -8.33231837	     68.46801900	     46.97353639	      0.00000000	      0.00000000
     50.95664286	     -2.99875372	     -4.01504984	      1.12631771	      0.98454389	      0.93046583	      0.44213785	     16.27515302	      1.31006454	    -13.12147810	     17.31644284	     17.31644284	      6.32826935	     -3.14743286	     -3.94970679	     10.09623674	     -9.05805595	     -5.35850778	     46.37241355	     46.37241355	      6.89091687	    -14.64885592	    -12.66794516	     -7.47127020	      4.70887357	      1.56977950	     -0.82173055	    -12.17186329	    -12.60168123	     27.92841073	     46.68401381	      0.00000000	      0.00000000	     15.59739986	    -11.10074399	     -7.91933683	     66.68756312	     46.91425766	      0.00000000	      0.00000000
     50.96871429	     -2.89047679	     -3.98513649	      1.35736126	      0.98427146	      0.93102394	      0.44349858	     15.46873853	      1.35214260	    -13.52967728	     16.98909105	     16.98909105	      6.64472543	     -2.59338152	     -4.28305650	     12.20174371	     -9.17490312	     -4.14068208	     50.37856469	     50.37856469	      4.39779403	    -16.33109648	    -11.94472086	     -7.61250727	      4.70207830	      1.58124899	      1.08051086	    -12.26039466	    -12.29216682	     29.21555760	     46.61822732	      0.00000000	      0.00000000	     14.79887188	    -10.83340897	     -7.43810528	     64.15518562	     46.84011320	      0.00000000	      0.00000000
     50.98078571	     -2.71953931	     -3.87981142	      1.53392120	      0.98377510	      0.93155582	      0.44474283	     14.67992784	      1.26679213	    -14.04433791	     16.80282326	     16.80282326	      6.85756704	     -1.82763559	     -5.17494034	     14.35879657	     -9.09241624	     -2.97183832	     54.44882270	     54.44882270	      3.39290215	    -16.90653933	     -7.75798653	     -7.79855099	      4.60827331	      2.72499235	      1.83095650	    -12.88449264	    -10.43722049	     31.97930960	     46.35806910	      0.00000000	      0.00000000	     15.85918345	     -9.87084990	     -6.09197658	     58.29520013	     46.68190716	      0.00000000	      0.00000000
